<svg xmlns="http://www.w3.org/2000/svg" viewBox="0 0 207 370"><title>資產 8</title><g id="圖層_2" data-name="圖層 2"><g id="圖層_2-2" data-name="圖層 2"><circle cx="46" cy="5" r="5"/><circle cx="46" cy="45" r="5"/><circle cx="46" cy="85" r="5"/><circle cx="46" cy="125" r="5"/><circle cx="46" cy="165" r="5"/><circle cx="85" cy="5" r="5"/><circle cx="85" cy="45" r="5"/><circle cx="85" cy="85" r="5"/><circle cx="85" cy="125" r="5"/><circle cx="85" cy="165" r="5"/><circle cx="124" cy="5" r="5"/><circle cx="124" cy="45" r="5"/><circle cx="124" cy="85" r="5"/><circle cx="124" cy="125" r="5"/><circle cx="124" cy="165" r="5"/><circle cx="163" cy="5" r="5"/><circle cx="163" cy="45" r="5"/><circle cx="163" cy="85" r="5"/><circle cx="163" cy="125" r="5"/><circle cx="163" cy="165" r="5"/><circle cx="202" cy="5" r="5"/><circle cx="202" cy="45" r="5"/><circle cx="202" cy="85" r="5"/><circle cx="202" cy="125" r="5"/><circle cx="202" cy="165" r="5"/><circle cx="46" cy="205" r="5"/><circle cx="46" cy="245" r="5"/><circle cx="46" cy="285" r="5"/><circle cx="46" cy="325" r="5"/><circle cx="46" cy="365" r="5"/><circle cx="5" cy="5" r="5"/><circle cx="5" cy="45" r="5"/><circle cx="5" cy="85" r="5"/><circle cx="5" cy="125" r="5"/><circle cx="5" cy="165" r="5"/><circle cx="5" cy="205" r="5"/><circle cx="5" cy="245" r="5"/><circle cx="5" cy="285" r="5"/><circle cx="5" cy="325" r="5"/><circle cx="5" cy="365" r="5"/><circle cx="85" cy="205" r="5"/><circle cx="85" cy="245" r="5"/><circle cx="85" cy="285" r="5"/><circle cx="85" cy="325" r="5"/><circle cx="85" cy="365" r="5"/><circle cx="124" cy="205" r="5"/><circle cx="124" cy="245" r="5"/><circle cx="124" cy="285" r="5"/><circle cx="124" cy="325" r="5"/><circle cx="124" cy="365" r="5"/><circle cx="163" cy="205" r="5"/><circle cx="163" cy="245" r="5"/><circle cx="163" cy="285" r="5"/><circle cx="163" cy="325" r="5"/><circle cx="163" cy="365" r="5"/><circle cx="202" cy="205" r="5"/><circle cx="202" cy="245" r="5"/><circle cx="202" cy="285" r="5"/><circle cx="202" cy="325" r="5"/><circle cx="202" cy="365" r="5"/></g></g></svg>