<svg xmlns="http://www.w3.org/2000/svg" viewBox="0 0 203 371"><defs><style>.cls-1{fill:#fff;}</style></defs><title>資產 7</title><g id="圖層_2" data-name="圖層 2"><g id="圖層_2-2" data-name="圖層 2"><circle class="cls-1" cx="5" cy="5" r="5"/><circle class="cls-1" cx="5" cy="45" r="5"/><circle class="cls-1" cx="5" cy="85" r="5"/><circle class="cls-1" cx="5" cy="125" r="5"/><circle class="cls-1" cx="5" cy="165" r="5"/><circle class="cls-1" cx="44" cy="5" r="5"/><circle class="cls-1" cx="44" cy="45" r="5"/><circle class="cls-1" cx="44" cy="85" r="5"/><circle class="cls-1" cx="44" cy="125" r="5"/><circle class="cls-1" cx="44" cy="165" r="5"/><circle class="cls-1" cx="83" cy="5" r="5"/><circle class="cls-1" cx="83" cy="45" r="5"/><circle class="cls-1" cx="83" cy="85" r="5"/><circle class="cls-1" cx="83" cy="125" r="5"/><circle class="cls-1" cx="83" cy="165" r="5"/><circle class="cls-1" cx="122" cy="5" r="5"/><circle class="cls-1" cx="122" cy="45" r="5"/><circle class="cls-1" cx="122" cy="85" r="5"/><circle class="cls-1" cx="122" cy="125" r="5"/><circle class="cls-1" cx="122" cy="165" r="5"/><circle class="cls-1" cx="161" cy="5" r="5"/><circle class="cls-1" cx="161" cy="45" r="5"/><circle class="cls-1" cx="161" cy="85" r="5"/><circle class="cls-1" cx="161" cy="125" r="5"/><circle class="cls-1" cx="161" cy="165" r="5"/><circle class="cls-1" cx="198" cy="5" r="5"/><circle class="cls-1" cx="198" cy="45" r="5"/><circle class="cls-1" cx="198" cy="85" r="5"/><circle class="cls-1" cx="198" cy="125" r="5"/><circle class="cls-1" cx="198" cy="165" r="5"/><circle class="cls-1" cx="5" cy="206" r="5"/><circle class="cls-1" cx="5" cy="246" r="5"/><circle class="cls-1" cx="5" cy="286" r="5"/><circle class="cls-1" cx="5" cy="326" r="5"/><circle class="cls-1" cx="5" cy="366" r="5"/><circle class="cls-1" cx="44" cy="206" r="5"/><circle class="cls-1" cx="44" cy="246" r="5"/><circle class="cls-1" cx="44" cy="286" r="5"/><circle class="cls-1" cx="44" cy="326" r="5"/><circle class="cls-1" cx="44" cy="366" r="5"/><circle class="cls-1" cx="83" cy="206" r="5"/><circle class="cls-1" cx="83" cy="246" r="5"/><circle class="cls-1" cx="83" cy="286" r="5"/><circle class="cls-1" cx="83" cy="326" r="5"/><circle class="cls-1" cx="83" cy="366" r="5"/><circle class="cls-1" cx="122" cy="206" r="5"/><circle class="cls-1" cx="122" cy="246" r="5"/><circle class="cls-1" cx="122" cy="286" r="5"/><circle class="cls-1" cx="122" cy="326" r="5"/><circle class="cls-1" cx="122" cy="366" r="5"/><circle class="cls-1" cx="161" cy="206" r="5"/><circle class="cls-1" cx="161" cy="246" r="5"/><circle class="cls-1" cx="161" cy="286" r="5"/><circle class="cls-1" cx="161" cy="326" r="5"/><circle class="cls-1" cx="161" cy="366" r="5"/><circle class="cls-1" cx="198" cy="206" r="5"/><circle class="cls-1" cx="198" cy="246" r="5"/><circle class="cls-1" cx="198" cy="286" r="5"/><circle class="cls-1" cx="198" cy="326" r="5"/><circle class="cls-1" cx="198" cy="366" r="5"/></g></g></svg>