<svg xmlns="http://www.w3.org/2000/svg" viewBox="0 0 129.04 62.11"><defs><style>.cls-1{fill:#fff;}</style></defs><title>資產 4</title><g id="圖層_2" data-name="圖層 2"><g id="圖層_2-2" data-name="圖層 2"><path class="cls-1" d="M126.89,39.92c-2.63.11-5.28-.08-7.9.06-1.84.1-2.45-.42-2.43-2.36.09-11.46,0-22.92,0-34.38V0c-1.46.77-2.56,1.06-3.26,1.76-9.36,9.35-18.64,18.78-28,28.16-2.75,2.76-5.6,5.4-8.25,7.95,1.68-16.37-4-28-16.62-34.3A29.29,29.29,0,0,0,43.3.74c-8.92,1.22-16,5.75-21.65,13V.58c-3.57,0-6.84,0-10.11.05a3.43,3.43,0,0,0-1.95,1C6.93,4.27,4.34,6.91,1.75,9.55c-.52.52-1,1.12-1.75,2.06,1.18.1,1.85.21,2.52.22,2.07,0,4.13,0,6.19,0,1.27,0,1.93.27,1.89,1.82-.1,3.44.07,6.89.07,10.33q0,9.51,0,19c0,5.91-.08,11.82-.05,17.73,0,.43.52,1.21.82,1.22,3.38.08,6.76,0,10.37,0V48.27c.53.74.72,1,.93,1.3,12.44,16.18,34.86,16.78,48,1.35a4.22,4.22,0,0,1,2.84-1.29c9.75-.09,19.51-.06,29.26-.06,2.76,0,2.76,0,2.76,2.79V61.8h11c0-3.54.08-6.89,0-10.23-.06-1.64.54-2.08,2.09-2,2.78.1,5.56-.06,8.33.05,1.63.06,2.13-.56,2-2.12a41.22,41.22,0,0,1,0-5.33C129.14,40.49,128.6,39.84,126.89,39.92ZM66.46,31.81A19.14,19.14,0,0,1,46.94,50.74c-11.09-.3-19.18-9-18.87-20.18a19.21,19.21,0,1,1,38.39,1.25ZM105.6,34c0,5.91,0,5.92-5.82,5.91l-10,0a6.48,6.48,0,0,1-.88-.24L105.6,23.53Z"/></g></g></svg>