<svg width="256" height="250" viewBox="0 0 256 250" fill="none" xmlns="http://www.w3.org/2000/svg">
<g clip-path="url(#clip0_6_22)">
<path d="M213.5 0H42.5C19.0279 0 0 19.0279 0 42.5V207.1C0 230.572 19.0279 249.6 42.5 249.6H213.5C236.972 249.6 256 230.572 256 207.1V42.5C256 19.0279 236.972 0 213.5 0Z" fill="#00005B"/>
<path d="M102.843 149.333H63.172L55.1 174.454C54.9965 174.885 54.7544 175.269 54.4109 175.549C54.0674 175.828 53.6416 175.987 53.199 176.001L32.947 176C31.801 176 31.4 175.37 31.745 174.11L66.092 75.601L66.435 74.566L66.549 74.212L66.779 73.472C66.893 73.09 67.007 72.685 67.122 72.246C67.572 69.955 67.802 67.626 67.809 65.291C67.7858 65.1278 67.8009 64.9613 67.8531 64.8049C67.9053 64.6485 67.9932 64.5064 68.1098 64.3898C68.2264 64.2732 68.3685 64.1853 68.5249 64.1331C68.6813 64.0809 68.8477 64.0658 69.011 64.089H96.317C97.117 64.089 97.574 64.375 97.691 64.948L136.674 174.283C137.017 175.428 136.674 176.001 135.644 176H113.318C112.935 176.043 112.549 175.944 112.233 175.723C111.917 175.502 111.692 175.173 111.601 174.798L102.843 149.333ZM69.355 128.152H96.489L96.102 126.875L95.481 124.853L94.572 121.957L92.827 116.49L91.165 111.236L88.073 101.447C87.2187 98.7448 86.3986 96.032 85.613 93.309L84.735 90.213L83.787 86.82L82.921 83.673H82.749C81.8901 87.7952 80.8437 91.8761 79.613 95.903L78.453 99.626L75.663 108.626L74.249 113.211C73.993 114.039 73.739 114.858 73.484 115.667L72.724 118.065L71.968 120.407L71.216 122.691L70.468 124.918C70.096 126.018 69.724 127.095 69.355 128.152ZM199.873 139.556H166.042C166.456 142.903 167.568 146.126 169.305 149.017C171.225 151.88 173.941 154.118 177.118 155.457C181.424 157.32 186.081 158.233 190.771 158.133C194.492 158.062 198.2 157.655 201.848 156.917C205.111 156.477 208.308 155.643 211.371 154.435C211.943 153.979 212.231 154.263 212.231 155.293V171.608C212.259 172.053 212.17 172.497 211.972 172.896C211.776 173.208 211.512 173.472 211.2 173.669C207.803 175.174 204.227 176.239 200.56 176.839C195.578 177.774 190.515 178.206 185.447 178.126C177.571 178.126 170.932 176.944 165.53 174.581L165.01 174.348C159.817 172.06 155.23 168.591 151.616 164.216C148.239 160.094 145.728 155.334 144.231 150.22C142.75 145.172 141.998 139.939 142 134.678C141.984 128.934 142.883 123.224 144.662 117.762C146.375 112.435 149.085 107.481 152.647 103.165C156.16 98.899 160.554 95.4425 165.527 93.032C170.564 90.572 176.518 89.689 183.387 89.689C189.084 89.545 194.743 90.6591 199.96 92.952C204.347 94.823 208.208 97.7395 211.208 101.447C214.021 105.078 216.172 109.176 217.562 113.554C218.915 117.773 219.61 122.175 219.623 126.606C219.623 129.126 219.537 131.416 219.366 133.476L219.213 135.24L219.053 136.914L218.958 137.762C218.951 137.822 218.943 137.881 218.936 137.941C218.891 138.319 218.709 138.668 218.425 138.922C218.14 139.175 217.772 139.315 217.391 139.315L216.92 139.325L216.333 139.355L215.876 139.388L214.808 139.479L213.87 139.572C213.615 139.599 213.35 139.624 213.075 139.647L212.224 139.714L211.315 139.774L210.35 139.824L209.328 139.867L208.795 139.885L207.688 139.915C206.593 139.942 205.471 139.874 204.32 139.79L202.574 139.662C201.675 139.596 200.775 139.561 199.874 139.556H199.873ZM166.042 123.911H189.428L191.42 123.898L192.774 123.879L193.651 123.859L194.635 123.825C195.516 123.737 196.366 123.455 197.125 123V121.97C197.091 120.627 196.86 119.296 196.439 118.02C195.513 115.09 193.65 112.545 191.137 110.777C188.624 109.008 185.6 108.113 182.529 108.23C179.639 108.055 176.76 108.725 174.244 110.159C171.728 111.592 169.684 113.727 168.36 116.302C167.184 118.698 166.401 121.267 166.042 123.912V123.911Z" fill="#9999FF"/>
</g>
<defs>
<clipPath id="clip0_6_22">
<rect width="256" height="250" fill="white"/>
</clipPath>
</defs>
</svg>
