<svg width="256" height="250" viewBox="0 0 256 250" fill="none" xmlns="http://www.w3.org/2000/svg">
<g clip-path="url(#clip0_6_19)">
<path d="M213.5 0H42.5C19.0279 0 0 19.0279 0 42.5V207.1C0 230.572 19.0279 249.6 42.5 249.6H213.5C236.972 249.6 256 230.572 256 207.1V42.5C256 19.0279 236.972 0 213.5 0Z" fill="#330000"/>
<path d="M124.054 149.79H84.3841L76.3121 174.863C76.2022 175.32 75.9363 175.725 75.56 176.007C75.1838 176.289 74.7208 176.432 74.2511 176.409H54.1581C53.0131 176.409 52.6121 175.779 52.9561 174.519L87.3031 75.601C87.6461 74.571 87.9901 73.398 88.3331 72.081C88.7831 69.789 89.0131 67.461 89.0201 65.126C88.9967 64.9627 89.0116 64.7961 89.0638 64.6396C89.1159 64.483 89.2037 64.3408 89.3204 64.2241C89.437 64.1073 89.5792 64.0194 89.7357 63.9671C89.8922 63.9149 90.0587 63.8998 90.2221 63.923H117.528C118.328 63.923 118.786 64.21 118.902 64.783L157.885 174.691C158.229 175.837 157.885 176.41 156.855 176.409H134.529C134.146 176.452 133.76 176.353 133.444 176.132C133.128 175.911 132.903 175.582 132.812 175.207L124.054 149.79ZM90.5661 128.152H117.7L117.313 126.875L116.692 124.853L116.249 123.433L115.542 121.197L114.039 116.49L112.717 112.317L109.284 101.447C108.43 98.7449 107.61 96.032 106.824 93.309L106.196 91.099L105.462 88.486L104.342 84.436L104.132 83.673H103.961C103.102 87.7951 102.055 91.876 100.825 95.903L98.2771 104.099L96.8751 108.627L95.4601 113.211C95.2041 114.039 94.9501 114.858 94.6951 115.667L93.9351 118.065L93.1791 120.407L92.4271 122.691L91.6791 124.918C91.4311 125.651 91.1831 126.374 90.9361 127.088L90.5661 128.152ZM181.067 82.127C179.316 82.1973 177.569 81.8972 175.941 81.2461C174.314 80.5951 172.842 79.6079 171.622 78.349C170.405 77.0355 169.461 75.4945 168.842 73.8145C168.222 72.1346 167.942 70.3489 168.015 68.56C167.953 66.7891 168.265 65.025 168.931 63.3829C169.596 61.7407 170.601 60.2575 171.879 59.03C174.344 56.6636 177.627 55.3394 181.044 55.333L181.41 55.337C185.532 55.337 188.767 56.567 191.114 59.029C192.299 60.3082 193.219 61.8085 193.823 63.4439C194.427 65.0794 194.703 66.8179 194.634 68.56C194.706 70.356 194.416 72.1481 193.782 73.8299C193.148 75.5117 192.182 77.0488 190.942 78.35C189.69 79.584 188.204 80.555 186.571 81.2059C184.938 81.8568 183.192 82.1744 181.434 82.14L181.067 82.127ZM169.217 174.691V92.603C169.217 91.573 169.673 91.057 170.591 91.057H191.715C192.63 91.057 193.088 91.572 193.089 92.603V174.691C193.089 175.837 192.631 176.41 191.715 176.409H170.763C169.787 176.409 169.273 175.895 169.222 174.867L169.217 174.691Z" fill="#FF9A00"/>
</g>
<defs>
<clipPath id="clip0_6_19">
<rect width="256" height="250" fill="white"/>
</clipPath>
</defs>
</svg>
