<svg width="79" height="79" viewBox="0 0 79 79" fill="none" xmlns="http://www.w3.org/2000/svg">
<g clip-path="url(#clip0_1_114)">
<path d="M79 39.7402C79 17.787 61.3206 0 39.4998 0C17.6794 0 0 17.787 0 39.7402C0 59.5754 14.4446 76.0163 33.328 79V51.2282H23.2939V39.7402H33.328V30.9847C33.328 21.0255 39.2212 15.5244 48.2473 15.5244C52.5702 15.5244 57.0901 16.3 57.0901 16.3V26.0748H52.1081C47.2024 26.0748 45.672 29.1388 45.672 32.2811V39.7402H56.6266L54.8747 51.2282H45.672V79C64.5553 76.0163 79 59.5754 79 39.7402Z" fill="white"/>
</g>
<defs>
<clipPath id="clip0_1_114">
<rect width="79" height="79" fill="white"/>
</clipPath>
</defs>
</svg>
