<svg width="256" height="361" viewBox="0 0 256 361" fill="none" xmlns="http://www.w3.org/2000/svg">
<path d="M255.11 70.766L231.869 331.126L127.399 360.088L23.217 331.166L0 70.766H255.11Z" fill="#E44D26"/>
<path d="M127.555 337.95L211.972 314.547L231.832 92.057H127.555V337.95Z" fill="#F16529"/>
<path d="M82.375 155.932H127.555V123.995H47.472L48.236 132.563L56.086 220.573H127.555V188.636H85.294L82.375 155.932ZM89.573 236.542H57.513L61.987 286.688L127.408 304.848L127.555 304.808V271.58L127.415 271.617L91.847 262.013L89.573 236.542Z" fill="#EBEBEB"/>
<path d="M23.735 0H39.965V16.035H54.812V0H71.043V48.558H54.813V32.298H39.966V48.558H23.736V0H23.735ZM92.385 16.103H78.099V0H122.913V16.103H108.618V48.558H92.388V16.103H92.387H92.385ZM130.025 0H146.948L157.358 17.062L167.758 0H184.688V48.558H168.524V24.49L157.358 41.755H157.078L145.905 24.49V48.558H130.025V0ZM192.765 0H209V32.508H231.824V48.558H192.764V0H192.765Z" fill="black"/>
<path d="M127.445 220.573H166.772L163.064 261.993L127.444 271.607V304.833L192.917 286.688L193.397 281.292L200.903 197.212L201.682 188.636H127.445V220.573ZM127.445 155.854V155.932H204.588L205.228 148.754L206.684 132.563L207.447 123.995H127.445V155.855V155.854Z" fill="white"/>
</svg>
