<svg width="79" height="79" viewBox="0 0 79 79" fill="none" xmlns="http://www.w3.org/2000/svg">
<g clip-path="url(#clip0_1_106)">
<path d="M39.5087 19.2454C28.2999 19.2454 19.2588 28.2886 19.2588 39.5C19.2588 50.7114 28.2999 59.7546 39.5087 59.7546C50.7178 59.7546 59.7591 50.7114 59.7591 39.5C59.7591 28.2886 50.7178 19.2454 39.5087 19.2454ZM39.5087 52.6683C32.2652 52.6683 26.3437 46.7628 26.3437 39.5C26.3437 32.2373 32.2478 26.3319 39.5087 26.3319C46.7699 26.3319 52.6741 32.2373 52.6741 39.5C52.6741 46.7628 46.7523 52.6683 39.5087 52.6683ZM65.3106 18.4169C65.3106 21.0435 63.1956 23.1412 60.5872 23.1412C57.9613 23.1412 55.8641 21.0258 55.8641 18.4169C55.8641 15.8079 57.979 13.6926 60.5872 13.6926C63.1956 13.6926 65.3106 15.8079 65.3106 18.4169ZM78.7225 23.2117C78.4228 16.8832 76.9777 11.2776 72.3424 6.659C67.7249 2.04044 62.1206 0.594947 55.7935 0.277641C49.2726 -0.0925469 29.7275 -0.0925469 23.2066 0.277641C16.8972 0.577319 11.2927 2.02282 6.65752 6.64138C2.02237 11.2599 0.594812 16.8656 0.27758 23.1941C-0.0925266 29.7164 -0.0925266 49.2661 0.27758 55.7883C0.57719 62.1167 2.02237 67.7225 6.65752 72.3412C11.2927 76.9595 16.8795 78.4052 23.2066 78.7225C29.7275 79.0924 49.2726 79.0924 55.7935 78.7225C62.1206 78.4228 67.7249 76.9771 72.3424 72.3412C76.96 67.7225 78.4052 62.1167 78.7225 55.7883C79.0924 49.2661 79.0924 29.734 78.7225 23.2117ZM70.2982 62.7866C68.9236 66.2418 66.2623 68.9036 62.7903 70.2961C57.5913 72.3588 45.2544 71.8826 39.5087 71.8826C33.7633 71.8826 21.4089 72.3412 16.2274 70.2961C12.773 68.9212 10.1118 66.2594 8.71955 62.7866C6.65752 57.5863 7.13336 45.2468 7.13336 39.5C7.13336 33.7533 6.67514 21.396 8.71955 16.2134C10.0942 12.7583 12.7554 10.0964 16.2274 8.70382C21.4265 6.64135 33.7633 7.11732 39.5087 7.11732C45.2544 7.11732 57.6087 6.659 62.7903 8.70382C66.2447 10.0788 68.9059 12.7406 70.2982 16.2134C72.3601 21.4137 71.8842 33.7533 71.8842 39.5C71.8842 45.2468 72.3601 57.6039 70.2982 62.7866Z" fill="url(#paint0_linear_1_106)"/>
</g>
<defs>
<linearGradient id="paint0_linear_1_106" x1="39.5" y1="0" x2="39.5" y2="79" gradientUnits="userSpaceOnUse">
<stop stop-color="white"/>
<stop offset="1" stop-color="white"/>
</linearGradient>
<clipPath id="clip0_1_106">
<rect width="79" height="79" fill="white"/>
</clipPath>
</defs>
</svg>
