<svg width="104" height="86" viewBox="0 0 104 86" fill="none" xmlns="http://www.w3.org/2000/svg">
<path fill-rule="evenodd" clip-rule="evenodd" d="M0 81.2222C0 79.9551 0.498051 78.7398 1.38459 77.8438C2.27112 76.9478 3.47352 76.4444 4.72727 76.4444H99.2727C100.526 76.4444 101.729 76.9478 102.615 77.8438C103.502 78.7398 104 79.9551 104 81.2222C104 82.4894 103.502 83.7046 102.615 84.6006C101.729 85.4966 100.526 86 99.2727 86H4.72727C3.47352 86 2.27112 85.4966 1.38459 84.6006C0.498051 83.7046 0 82.4894 0 81.2222ZM0 43C0 41.7329 0.498051 40.5176 1.38459 39.6216C2.27112 38.7256 3.47352 38.2222 4.72727 38.2222H99.2727C100.526 38.2222 101.729 38.7256 102.615 39.6216C103.502 40.5176 104 41.7329 104 43C104 44.2671 103.502 45.4824 102.615 46.3784C101.729 47.2744 100.526 47.7778 99.2727 47.7778H4.72727C3.47352 47.7778 2.27112 47.2744 1.38459 46.3784C0.498051 45.4824 0 44.2671 0 43ZM0 4.77778C0 3.51063 0.498051 2.29539 1.38459 1.39938C2.27112 0.503372 3.47352 0 4.72727 0H99.2727C100.526 0 101.729 0.503372 102.615 1.39938C103.502 2.29539 104 3.51063 104 4.77778C104 6.04492 103.502 7.26017 102.615 8.15618C101.729 9.05218 100.526 9.55556 99.2727 9.55556H4.72727C3.47352 9.55556 2.27112 9.05218 1.38459 8.15618C0.498051 7.26017 0 6.04492 0 4.77778V4.77778Z" fill="white"/>
</svg>
