<svg xmlns="http://www.w3.org/2000/svg" viewBox="0 0 158.02 127.68"><defs><style>.cls-1{fill:#fff;}</style></defs><title>資產 13</title><g id="圖層_2" data-name="圖層 2"><g id="圖層_2-2" data-name="圖層 2"><path class="cls-1" d="M130.32,79.15h11.25q9.65,0,9.65,6.6a8.81,8.81,0,0,1-3.37,7.36q-3.36,2.64-9.47,2.64h-13.2q-7.22,0-11.14-3t-3.92-8.64q0-3.61,2.91-10.55l17.85-41.8L117.48,46.1q-4.8,5.2-9.1,5.21-5.62,0-7.29-7.71L99.15,35,82.21,76.79q-8.76,21.52-13.33,29.27A48.06,48.06,0,0,1,57,119.49a38.42,38.42,0,0,1-24.23,8.19q-14.58,0-23.67-9.2T0,94.5Q0,75.12,14.3,60.4A57.93,57.93,0,0,1,33.54,47.73a58.58,58.58,0,0,1,22.7-4.82c3.79,0,6.83.81,9.09,2.43a7.56,7.56,0,0,1,3.41,6.46,8.16,8.16,0,0,1-3.61,6.87Q63,60.2,57.07,60.75,43.26,62,34.78,67.07a32.35,32.35,0,0,0-11.14,11,27.07,27.07,0,0,0-4.13,14.23q0,7.92,4,12.47t11,4.54q8.4,0,14.61-7.18T62.83,76.79L90.4,9q3.6-9,9.72-9a7.84,7.84,0,0,1,6.14,2.5q2.26,2.51,3.93,8.75l4.23,16L135.25,6.73Q142.12,0,148.1,0a10.28,10.28,0,0,1,7,2.53A7.9,7.9,0,0,1,158,8.68a13.29,13.29,0,0,1-1.11,5l-1.59,3.89Z"/></g></g></svg>