<svg xmlns="http://www.w3.org/2000/svg" xmlns:xlink="http://www.w3.org/1999/xlink" viewBox="0 0 256.02 206.87"><defs><style>.cls-1{fill:url(#未命名漸層_13);}</style><linearGradient id="未命名漸層_13" x1="78.03" y1="43" x2="212.79" y2="177.76" gradientUnits="userSpaceOnUse"><stop offset="0" stop-color="#ffc9ff"/><stop offset="0.09" stop-color="#f9c5ff"/><stop offset="0.21" stop-color="#e8bbff"/><stop offset="0.34" stop-color="#cda9ff"/><stop offset="0.49" stop-color="#a691ff"/><stop offset="0.5" stop-color="#a490ff"/><stop offset="0.61" stop-color="#b49aff"/><stop offset="0.84" stop-color="#deb4ff"/><stop offset="1" stop-color="#fec8ff"/></linearGradient></defs><title>資產 12</title><g id="圖層_2" data-name="圖層 2"><g id="圖層_2-2" data-name="圖層 2"><path class="cls-1" d="M211.14,128.24h18.22q15.64,0,15.64,10.68,0,7.65-5.46,11.93t-15.35,4.27H202.82q-11.7,0-18.06-4.89t-6.35-14q0-5.83,4.72-17.09L212,51.41,190.33,74.69q-7.76,8.44-14.74,8.44-9.1,0-11.81-12.49l-3.15-14-27.44,67.72q-14.18,34.88-21.6,47.42a77.54,77.54,0,0,1-19.24,21.76,62.26,62.26,0,0,1-39.26,13.28q-23.61,0-38.35-14.91T0,153.1q0-31.4,23.17-55.23Q35.67,85.15,54.33,77.34a94.63,94.63,0,0,1,36.79-7.82q9.21,0,14.73,3.94a12.23,12.23,0,0,1,5.51,10.46,13.19,13.19,0,0,1-5.85,11.13q-3.37,2.48-13,3.38-22.39,2-36.11,10.23A52.51,52.51,0,0,0,38.3,126.55a43.81,43.81,0,0,0-6.69,23.06q0,12.82,6.52,20.19T56,177.17q13.6,0,23.68-11.64t22.1-41.12l44.66-109.9Q152.31,0,162.21,0q6.3,0,9.95,4.05t6.36,14.17l6.86,25.88,33.75-33.19Q230.26,0,239.94,0a16.69,16.69,0,0,1,11.42,4.11,12.76,12.76,0,0,1,4.66,10,21.45,21.45,0,0,1-1.8,8.1l-2.58,6.3Z"/></g></g></svg>