<svg width="256" height="250" viewBox="0 0 256 250" fill="none" xmlns="http://www.w3.org/2000/svg">
<g clip-path="url(#clip0_6_16)">
<path d="M213.5 0H42.5C19.0279 0 0 19.0279 0 42.5V207.1C0 230.572 19.0279 249.6 42.5 249.6H213.5C236.972 249.6 256 230.572 256 207.1V42.5C256 19.0279 236.972 0 213.5 0Z" fill="#001E36"/>
<path d="M57.644 175.035V65.297C57.644 64.497 57.988 64.095 58.675 64.095L59.762 64.092L61.62 64.072L64.202 64.021L72.852 63.838L82.127 63.666C85.389 63.61 88.623 63.58 91.829 63.58C100.529 63.58 107.856 64.668 113.811 66.843C119.183 68.66 124.082 71.6519 128.151 75.601C131.601 79.0243 134.267 83.1553 135.965 87.709C137.571 92.1402 138.386 96.8196 138.37 101.533C138.37 110.694 136.251 118.25 132.015 124.202C127.872 130.009 122.093 134.45 115.415 136.958L114.842 137.168C107.869 139.769 100.147 140.709 91.678 140.768L90.362 140.772L88.409 140.762L87.424 140.748L86.326 140.722L85.664 140.696L85.262 140.675L84.273 140.639L83.064 140.614L81.244 140.601L80.839 140.6V174.863C80.8691 175.073 80.8498 175.287 80.7828 175.488C80.7158 175.69 80.6027 175.873 80.4527 176.023C80.3027 176.173 80.1198 176.286 79.9185 176.353C79.7172 176.42 79.503 176.439 79.293 176.409H58.847C58.044 176.409 57.644 175.953 57.644 175.035ZM80.84 84.703V120.495C82.2106 120.606 83.5849 120.663 84.96 120.667H90.628C94.5357 120.654 98.4208 120.072 102.161 118.94L102.907 118.707C106.31 117.696 109.35 115.729 111.666 113.039C113.818 110.501 114.933 107.004 115.01 102.547L115.015 102.048C115.105 98.726 114.241 95.448 112.524 92.603C110.719 89.8515 108.111 87.7227 105.054 86.506C101.062 84.9545 96.7978 84.2246 92.517 84.36L90.339 84.366L88.965 84.378L87.654 84.395L85.804 84.431L84.454 84.469L83.753 84.495L82.816 84.539L82.018 84.588L81.563 84.624L81.17 84.662L80.997 84.682L80.84 84.703ZM204.77 113.987C201.774 112.448 198.597 111.291 195.312 110.545L194.552 110.381C190.939 109.552 187.25 109.095 183.543 109.018L182.617 109.007C180.444 108.948 178.274 109.209 176.177 109.78C174.842 110.077 173.655 110.837 172.827 111.926C172.267 112.797 171.97 113.811 171.969 114.846C172 115.85 172.362 116.816 172.999 117.593C173.91 118.659 175.006 119.552 176.234 120.23L176.606 120.427C179.055 121.745 181.577 122.921 184.162 123.947C189.926 125.876 195.433 128.5 200.562 131.761C204.057 133.967 206.949 137.006 208.978 140.606C210.684 144.014 211.538 147.785 211.468 151.596C211.571 156.629 210.132 161.573 207.346 165.765C204.363 170.02 200.22 173.328 195.41 175.295C190.373 177.509 184.187 178.652 176.853 178.727L176.091 178.731C171.544 178.777 167.004 178.379 162.535 177.543L161.579 177.357C157.816 176.667 154.153 175.513 150.674 173.922C150.324 173.741 150.029 173.471 149.818 173.139C149.607 172.807 149.487 172.425 149.472 172.032V153.314C149.451 153.132 149.481 152.948 149.556 152.782C149.632 152.616 149.751 152.473 149.902 152.369C150.049 152.286 150.219 152.249 150.387 152.265C150.556 152.28 150.716 152.346 150.846 152.455C154.955 154.878 159.416 156.645 164.069 157.693C168.171 158.721 172.378 159.269 176.606 159.325C180.612 159.325 183.56 158.809 185.45 157.779C186.303 157.388 187.025 156.759 187.528 155.966C188.031 155.174 188.294 154.253 188.284 153.314C188.284 151.828 187.425 150.396 185.708 149.021C184.988 148.445 183.955 147.818 182.611 147.141L181.968 146.825L181.282 146.502L180.922 146.338L180.168 146.004C180.037 145.947 179.906 145.89 179.775 145.834L178.955 145.49L178.528 145.315L177.642 144.96L177.182 144.78L176.229 144.413L175.232 144.04C169.839 142.163 164.727 139.563 160.033 136.312C156.676 133.977 153.912 130.89 151.962 127.296C150.273 123.912 149.419 120.173 149.472 116.391C149.462 111.847 150.71 107.389 153.078 103.511C155.778 99.241 159.654 95.841 164.241 93.723C169.278 91.206 175.574 89.946 183.131 89.944C187.557 89.9085 191.979 90.2245 196.355 90.889C199.524 91.2909 202.622 92.1288 205.561 93.379C206.034 93.515 206.415 93.864 206.591 94.324C206.708 94.743 206.765 95.176 206.763 95.612V112.957C206.788 113.367 206.591 113.76 206.248 113.987C206.018 114.101 205.765 114.161 205.509 114.161C205.253 114.161 205 114.101 204.77 113.987Z" fill="#31A8FF"/>
</g>
<defs>
<clipPath id="clip0_6_16">
<rect width="256" height="250" fill="white"/>
</clipPath>
</defs>
</svg>
