<svg width="79" height="79" viewBox="0 0 79 79" fill="none" xmlns="http://www.w3.org/2000/svg">
<g clip-path="url(#clip0_1_108)">
<path d="M70.8796 19.6882C70.9299 20.5522 70.9299 21.4164 70.9299 22.2804C70.9299 48.6342 54.6385 79 24.863 79C15.6897 79 7.1682 75.7288 0 70.0509C1.30335 70.236 2.5564 70.2976 3.90989 70.2976C11.4789 70.2976 18.4467 67.15 24.0109 61.7806C16.8928 61.5953 10.9277 55.8556 8.87241 47.9554C9.875 48.1405 10.8775 48.264 11.9303 48.264C13.3839 48.264 14.8377 48.017 16.1911 47.5851C8.77224 45.7333 3.20801 37.7101 3.20801 28.0203V27.7735C5.36339 29.2547 7.86996 30.1806 10.5265 30.3038C6.16542 26.7241 3.30828 20.6139 3.30828 13.7014C3.30828 9.9984 4.11019 6.60385 5.51383 3.64132C13.484 15.7381 25.4645 23.6381 38.8983 24.5022C38.6478 23.021 38.4975 21.4782 38.4975 19.9352C38.4975 8.94912 45.7157 0 54.6885 0C59.3503 0 63.5608 2.40703 66.5186 6.2953C70.1775 5.43127 73.6865 3.7648 76.7946 1.48126C75.5912 6.11028 73.0349 9.99856 69.6764 12.4671C72.9346 12.0353 76.0928 10.9241 79 9.38133C76.7949 13.3312 74.0378 16.849 70.8796 19.6882Z" fill="white"/>
<path d="M70.8796 19.6882C70.9299 20.5522 70.9299 21.4164 70.9299 22.2804C70.9299 48.6342 54.6385 79 24.863 79C15.6897 79 7.1682 75.7288 0 70.0509C1.30335 70.236 2.5564 70.2976 3.90989 70.2976C11.4789 70.2976 18.4467 67.15 24.0109 61.7806C16.8928 61.5953 10.9277 55.8556 8.87241 47.9554C9.875 48.1405 10.8775 48.264 11.9303 48.264C13.3839 48.264 14.8377 48.017 16.1911 47.5851C8.77224 45.7333 3.20801 37.7101 3.20801 28.0203V27.7735C5.36339 29.2547 7.86996 30.1806 10.5265 30.3038C6.16542 26.7241 3.30828 20.6139 3.30828 13.7014C3.30828 9.9984 4.11019 6.60385 5.51383 3.64132C13.484 15.7381 25.4645 23.6381 38.8983 24.5022C38.6478 23.021 38.4975 21.4782 38.4975 19.9352C38.4975 8.94912 45.7157 0 54.6885 0C59.3503 0 63.5608 2.40703 66.5186 6.2953C70.1775 5.43127 73.6865 3.7648 76.7946 1.48126C75.5912 6.11028 73.0349 9.99856 69.6764 12.4671C72.9346 12.0353 76.0928 10.9241 79 9.38133C76.7949 13.3312 74.0378 16.849 70.8796 19.6882Z" stroke="white"/>
</g>
<defs>
<clipPath id="clip0_1_108">
<rect width="79" height="79" fill="white"/>
</clipPath>
</defs>
</svg>
