<svg width="80" height="60" viewBox="0 0 80 60" fill="none" xmlns="http://www.w3.org/2000/svg">
<g clip-path="url(#clip0_1_112)">
<path d="M78.3282 9.388C77.4082 5.69266 74.6974 2.78234 71.2554 1.79469C65.0167 0 40 0 40 0C40 0 14.9834 0 8.74456 1.79469C5.30258 2.78251 2.59174 5.69266 1.67168 9.388C0 16.0859 0 30.0607 0 30.0607C0 30.0607 0 44.0352 1.67168 50.7334C2.59174 54.4286 5.30258 57.2177 8.74456 58.2053C14.9834 60 40 60 40 60C40 60 65.0165 60 71.2554 58.2053C74.6974 57.2177 77.4082 54.4286 78.3282 50.7334C80 44.0352 80 30.0607 80 30.0607C80 30.0607 80 16.0859 78.3282 9.388ZM31.8181 42.7486V17.3726L52.7272 30.061L31.8181 42.7486Z" fill="white"/>
</g>
<defs>
<clipPath id="clip0_1_112">
<rect width="80" height="60" fill="white"/>
</clipPath>
</defs>
</svg>
